<svg id="flat" height="512" viewBox="0 0 512 512" width="512" xmlns="http://www.w3.org/2000/svg"><path d="m104 184s24.401-120 152-144c0 0 168 16 184 136s-336 8-336 8z" fill="#505f2c"/><circle cx="256" cy="272" fill="#7e9746" r="192"/><g><path d="m223.999 328.002c-3.35 0-6.471-2.12-7.589-5.472-21.399-64.198-11.219-117.177 1.091-150.315 13.377-36.018 31.776-56.703 32.553-57.566 2.953-3.283 8.012-3.551 11.298-.595 3.283 2.954 3.55 8.01.599 11.294-.381.429-17.502 19.924-29.691 53.088-16.359 44.511-16.585 91.289-.669 139.034 1.396 4.192-.868 8.723-5.06 10.12-.841.279-1.694.412-2.532.412z" fill="#4c5b2a"/></g><g><path d="m232.006 160.002c-2.935 0-5.76-1.621-7.161-4.424-13.482-26.965-39.775-27.565-40.889-27.578-4.4-.049-7.958-3.644-7.934-8.044.025-4.401 3.576-7.956 7.978-7.956 1.509 0 37.151.414 55.155 36.422 1.976 3.952.374 8.758-3.577 10.733-1.148.574-2.37.847-3.572.847z" fill="#4c5b2a"/></g><g><path d="m216.008 216.001c-2.586 0-5.123-1.251-6.664-3.563-2.451-3.676-1.458-8.644 2.219-11.094 25.719-17.147 51.358-17.344 52.437-17.344 4.418 0 8 3.582 8 8 0 4.41-3.569 7.987-7.977 8-.334.003-22.118.345-43.586 14.656-1.363.909-2.905 1.345-4.429 1.345z" fill="#4c5b2a"/></g><g><path d="m216.006 208.002c-2.935 0-5.76-1.621-7.161-4.424-4.607-9.215-23.785-17.047-34.792-19.818-4.281-1.079-6.884-5.423-5.809-9.706 1.074-4.282 5.41-6.886 9.696-5.814 3.641.91 35.84 9.434 45.215 28.183 1.976 3.952.374 8.758-3.577 10.733-1.148.573-2.37.846-3.572.846z" fill="#4c5b2a"/></g><g><path d="m280.006 160.002c-.642 0-1.294-.078-1.945-.24-11.285-2.807-32.795-5.45-42.482-.606-3.952 1.977-8.758.374-10.733-3.577-1.976-3.952-.374-8.758 3.577-10.733 18.123-9.061 49.948-1.498 53.519-.605 4.286 1.071 6.893 5.415 5.82 9.701-.909 3.633-4.171 6.06-7.756 6.06z" fill="#4c5b2a"/></g><g><path d="m216.006 264.002c-2.935 0-5.76-1.621-7.161-4.424-5.57-11.141-24.679-11.577-24.87-11.578-4.408-.029-7.976-3.618-7.961-8.026s3.578-7.974 7.986-7.974c1.182 0 29.061.232 39.155 20.422 1.976 3.952.374 8.758-3.577 10.733-1.148.574-2.37.847-3.572.847z" fill="#4c5b2a"/></g><g><path d="m216 264c-2.048 0-4.095-.781-5.657-2.343-3.124-3.125-3.124-8.189 0-11.314 17.02-17.02 27.003-18.343 29.657-18.343v16c-.001-.001.217.034.649-.035-.063.011-6.459 1.158-18.992 13.692-1.562 1.562-3.609 2.343-5.657 2.343z" fill="#4c5b2a"/></g><path d="m181.256 431.07s-36.218-114.605 81.491-139.163c0 0-19.28-89.515 63.382-98.233 0 0 36.218-73.674 117.709-73.674 0 0 181.091 311.07-190.146 352 .001 0-63.381-8.186-72.436-40.93z" fill="#b8dd66"/><g><path d="m248.008 448.001c-2.654 0-5.25-1.319-6.771-3.729-2.359-3.735-1.244-8.676 2.492-11.035 33.806-21.352 64.305-49.415 90.649-83.412 21.164-27.312 39.715-58.496 55.137-92.687 26.359-58.435 34.516-105.982 34.595-106.456.729-4.357 4.858-7.304 9.209-6.57 4.356.728 7.299 4.847 6.573 9.204-.334 2.001-8.482 49.715-35.597 109.968-15.934 35.409-35.143 67.746-57.093 96.112-27.529 35.577-59.469 64.972-94.931 87.368-1.325.838-2.803 1.237-4.263 1.237z" fill="#809947"/></g><g><path d="m400 256c-4.418 0-8-3.582-8-8 0-7.332-6.099-16.883-17.172-26.892-9.316-8.421-18.854-14.194-18.949-14.251-3.783-2.277-5.008-7.191-2.733-10.977 2.274-3.786 7.185-5.012 10.971-2.741 4.49 2.696 43.883 27.132 43.883 54.861 0 4.418-3.582 8-8 8z" fill="#809947"/></g><g><path d="m392 280c-2.048 0-4.095-.781-5.657-2.343-3.124-3.125-3.124-8.189 0-11.314 32.544-32.543 64.726-48.821 66.079-49.498 3.951-1.976 8.758-.374 10.733 3.577 1.976 3.952.375 8.756-3.576 10.732-.491.248-31.402 15.983-61.922 46.503-1.562 1.562-3.609 2.343-5.657 2.343z" fill="#809947"/></g><g><path d="m368.009 320.002c-.521 0-1.048-.052-1.578-.157-4.332-.866-7.142-5.081-6.275-9.414 6.842-34.209-36.166-63.488-36.602-63.78-3.666-2.457-4.653-7.424-2.2-11.094s7.409-4.663 11.084-2.213c.528.353 13.073 8.784 24.67 22.488 16.024 18.938 22.504 38.904 18.737 57.737-.761 3.803-4.101 6.433-7.836 6.433z" fill="#809947"/></g><g><path d="m368.005 328c-2.347.001-4.672-1.027-6.252-3.002-2.76-3.45-2.2-8.485 1.249-11.245 42.604-34.081 77.474-25.881 78.938-25.514 4.286 1.071 6.893 5.415 5.82 9.701-1.066 4.269-5.38 6.867-9.648 5.834-1.305-.3-29.188-6.269-65.114 22.473-1.476 1.18-3.24 1.753-4.993 1.753z" fill="#809947"/></g><g><path d="m336.006 368.002c-.643 0-1.295-.078-1.946-.241-4.286-1.071-6.893-5.415-5.82-9.701 5.661-22.646-19.661-54.168-29.896-64.402-3.124-3.125-3.124-8.189 0-11.314 3.125-3.123 8.189-3.123 11.314 0 1.764 1.765 43.099 43.617 34.104 79.598-.909 3.633-4.171 6.06-7.756 6.06z" fill="#809947"/></g><g><path d="m296.006 408.002c-.643 0-1.295-.078-1.946-.241-4.286-1.071-6.893-5.415-5.82-9.701 5.661-22.646-19.661-54.168-29.896-64.402-3.124-3.125-3.124-8.189 0-11.314 3.125-3.123 8.189-3.123 11.314 0 1.764 1.765 43.099 43.617 34.104 79.598-.909 3.633-4.171 6.06-7.756 6.06z" fill="#809947"/></g><g><path d="m383.994 408c-1.666 0-3.347-.518-4.783-1.592-.291-.217-29.445-21.603-57.271-14.647-4.288 1.076-8.63-1.535-9.701-5.82-1.072-4.286 1.534-8.63 5.82-9.701 35.295-8.825 69.31 16.287 70.74 17.36 3.535 2.651 4.251 7.666 1.601 11.2-1.572 2.096-3.974 3.2-6.406 3.2z" fill="#809947"/></g><g><path d="m415.996 369.637c-1.666 0-3.347-.518-4.783-1.592-.291-.217-29.445-21.603-57.271-14.647-4.288 1.076-8.63-1.535-9.701-5.82-1.072-4.286 1.534-8.63 5.82-9.701 35.295-8.825 69.31 16.287 70.74 17.36 3.535 2.651 4.251 7.666 1.601 11.2-1.572 2.096-3.974 3.2-6.406 3.2z" fill="#809947"/></g><path d="m247.72 472c-51.59-11.59-92.51-27.05-124.68-45.17-6.04-3.4-11.77-6.89-17.2-10.48h-.01c-16.79-11.05-30.74-22.93-42.26-35.39-5.39-5.83-10.24-11.79-14.59-17.86v-.01c-14.61-20.33-23.6-41.79-28.43-63.5-1.73-7.73-2.92-15.48-3.65-23.23 0-.01 0-.01 0-.01-1.96-20.8-.58-41.49 2.87-61.29 1.59-9.22 3.65-18.24 6.02-26.99 17.87-65.84 53.93-116.07 53.93-116.07s64 32 40 80c0 0 56 48 16 80 0 0 72 32 48 104 0 0 80 64 64 136z" fill="#9dbd57"/><g><path d="m74.56 175.58c-.42.15-23.04 8.21-52.9 38.08-.57.57-1.21 1.04-1.89 1.4 1.59-9.22 3.65-18.24 6.02-26.99 25.07-21.28 42.8-27.37 43.68-27.66 4.2-1.4 8.72.87 10.12 5.06 1.39 4.18-.86 8.7-5.03 10.11z" fill="#53642e"/></g><g><path d="m64.3 246.67c-.37.25-20.16 13.84-41.38 50.36-.61 1.05-1.43 1.91-2.37 2.56-1.73-7.73-2.92-15.48-3.65-23.23 0-.01 0-.01 0-.01 20.3-30.8 37.77-42.5 38.59-43.04 3.7-2.42 8.66-1.39 11.08 2.3s1.4 8.63-2.27 11.06z" fill="#53642e"/></g><g><path d="m85.39 321.07c-.37.37-21.67 22.52-21.67 58.36 0 .52-.05 1.04-.15 1.53-5.39-5.83-10.24-11.79-14.59-17.86-.01-.01 0-.01 0-.01 5.1-32.97 24.15-52.39 25.08-53.32 3.12-3.12 8.19-3.12 11.31 0s3.13 8.17.02 11.3z" fill="#53642e"/></g><g><path d="m123.33 422.06c.41 1.65.28 3.3-.29 4.77-6.04-3.4-11.77-6.89-17.2-10.48h-.01c-4.94-29.98 1.66-57.03 1.98-58.29 1.07-4.28 5.41-6.89 9.7-5.82 4.28 1.07 6.89 5.41 5.82 9.69-.05.21-3.3 13.66-3.3 31.34 0 8.91.82 18.89 3.3 28.79z" fill="#53642e"/></g></svg>