<svg id="Capa_1" enable-background="new 0 0 512 512" height="512" viewBox="0 0 512 512" width="512" xmlns="http://www.w3.org/2000/svg"><g><g><g><g><path d="m229.556 345.755h-139.7v-17.517c0-38.516 31.335-69.851 69.85-69.851s69.851 31.335 69.851 69.851v17.517z" fill="#2d6994"/></g></g></g><g><g><g><path d="m158.66 273.911c-18.788 0-34.074-15.285-34.074-34.074s15.286-34.074 34.074-34.074 34.074 15.285 34.074 34.074-15.286 34.074-34.074 34.074z" fill="#f9d1c8"/></g></g></g><g><path d="m50.702 334.158v146.8h178.854l18.182-73.4-18.182-73.4z" fill="#afd1fd"/><path d="m229.556 334.158h99.651v146.8h-99.651z" fill="#91c0fd"/></g><g><g><g><path d="m393.252 102.697h30.021v158.33h-30.021z" fill="#2d5177"/></g></g></g><g><g><g><path d="m35.691 102.697h30.021v409.303h-30.021z" fill="#2d6994"/></g></g></g><g><path d="m309.188 245.295v266.705h30.02v-31.042h53.54l21.954-102.31-21.954-133.353z" fill="#f7fcff"/><path d="m392.748 245.295v235.663h53.54v31.042h30.021v-266.705z" fill="#e8ecf7"/></g><g><path d="m348.951 426.128h43.797l9.827-15.01-9.827-15.011h-43.797z" fill="#e8ecf7"/><path d="m348.951 334.158v30.021h43.797l9.827-12.534-9.827-17.487z" fill="#e8ecf7"/><path d="m392.748 334.158h43.907v30.021h-43.907z" fill="#d5dbe8"/></g><path d="m392.748 396.107h43.907v30.021h-43.907z" fill="#d5dbe8"/><g><g><path d="m35.691 0v87.649l48.466 9.828 48.467-9.828 28.212-55.049-28.212-32.6z" fill="#fd6c5f"/><path d="m423.422 0h-96.97l-23.251 35.537 23.251 52.112 51.78 9.828 45.19-9.828z" fill="#91c0fd"/><path d="m326.452 87.649-14.817 14.396 14.817 1.29c0 26.767 21.587 48.466 48.354 48.466 26.767 0 48.466-21.699 48.466-48.466v-15.686z" fill="#6dabfc"/></g><g><path d="m132.624 103.335c0 26.767 21.699 48.466 48.466 48.466 26.767 0 48.466-21.699 48.466-48.466l12.689-14.318-12.689-1.368-48.466-34.992-48.466 34.992-10.223 14.396z" fill="#91c0fd"/><path d="m132.624 0v87.649h96.932l29.458-49.104-29.458-38.545z" fill="#afd1fd"/><path d="m326.452 0h-96.896v87.649l52.658 13.107 44.238-13.107z" fill="#fd445f"/></g><path d="m35.691 103.335c0 26.767 21.699 48.466 48.466 48.466 26.767 0 48.466-21.699 48.466-48.466v-15.686h-96.932z" fill="#fd445f"/><path d="m229.556 87.649v15.686c0 26.767 21.699 48.466 48.466 48.466 26.767 0 48.429-21.699 48.429-48.466v-15.686z" fill="#e1105a"/></g></g></svg>