<svg id="Capa_1" enable-background="new 0 0 510 510" height="512" viewBox="0 0 510 510" width="512" xmlns="http://www.w3.org/2000/svg"><g><g><path id="XMLID_212_" d="m191.672 29.979c-45.763-18.488-82.98-15.928-116.672-27.823v28.543c0 50.617 40.783 87.144 91.091 87.144l43.909 10.5c27.823-6.492 17.163-4.005 45-10.5 0-42.205-26.311-73.717-63.328-87.864z" fill="#b6dc45"/><path id="XMLID_87_" d="m318.327 29.979c45.764-18.488 82.981-15.928 116.673-27.823v28.543c0 50.617-40.783 87.144-91.091 87.144l-43.909 11.501-45-11.5c0-42.206 26.31-73.718 63.327-87.865z" fill="#73ca7a"/></g><path d="m255 507.844h-255v-390h255l10 186.246z" fill="#e4f3ff"/><path d="m255 117.844h255v390h-255z" fill="#c3dafd"/><path d="m120 357.844v-30h-90v150h30v-60h45v-30h-45v-30z" fill="#457899"/><path d="m360 177.844v-30h-90v150h30v-60h45v-30h-45v-30z" fill="#365c75"/><path d="m480 177.844v-30h-90v150h90v-30h-60v-30h45v-30h-45v-30z" fill="#365c75"/><g id="XMLID_328_"><g><path d="m195 477.844c-24.813 0-45-20.186-45-45v-60c0-24.813 20.187-45 45-45s45 20.187 45 45v60c0 24.813-20.187 45-45 45zm0-120c-8.271 0-15 6.729-15 15v60c0 8.271 6.729 15 15 15s15-6.729 15-15v-60c0-8.272-6.729-15-15-15z" fill="#457899"/></g></g><g id="XMLID_326_"><g><path d="m315 477.844c-24.814 0-45-20.186-45-45v-60c0-24.813 20.186-45 45-45 24.813 0 45 20.187 45 45v60c0 24.813-20.187 45-45 45zm0-120c-8.272 0-15 6.729-15 15v60c0 8.271 6.728 15 15 15 8.271 0 15-6.729 15-15v-60c0-8.272-6.729-15-15-15z" fill="#365c75"/></g></g><g id="XMLID_325_"><g><path d="m435 477.844h-45v-150h45c24.813 0 45 20.187 45 45v60c0 24.813-20.187 45-45 45zm-15-30h15c8.271 0 15-6.729 15-15v-60c0-8.271-6.729-15-15-15h-15z" fill="#365c75"/></g></g><g id="XMLID_324_"><g><path d="m75 297.844h-45v-30h45c8.271 0 15-6.728 15-15 0-8.271-6.729-15-15-15-24.813 0-45-20.187-45-45s20.187-45 45-45h45v30h-45c-8.271 0-15 6.729-15 15s6.729 15 15 15c24.813 0 45 20.187 45 45s-20.187 45-45 45z" fill="#457899"/></g></g><path d="m195 147.844c-24.813 0-45 20.187-45 45v105h30v-45h30v45h30v-105c0-24.813-20.187-45-45-45zm-15 75v-30c0-8.271 6.729-15 15-15s15 6.729 15 15v30z" fill="#457899"/></g></svg>