<svg id="Twotone" height="512" viewBox="0 0 64 64" width="512" xmlns="http://www.w3.org/2000/svg"><g id="Color_copy_2"><g><g><path d="m19 54v-16h-8l-5.789 2.894c-1.355.678-2.211 2.063-2.211 3.578v9.528z" fill="#a8dba8"/><path d="m59 54c1.105 0 2-.895 2-2v-29c0-1.105-.895-2-2-2h-38c-1.105 0-2 .895-2 2v31z" fill="#fff"/><path d="m11 28h8v10h-8z" fill="#fff"/><path d="m19 24h-6c-2.209 0-4 1.791-4 4h10z" fill="#a8dba8"/><path d="m59 21h-38c-1.105 0-2 .895-2 2v2h42v-2c0-1.105-.895-2-2-2z" fill="#79bd9a"/><path d="m22 39v-14h-3v29h40c1.105 0 2-.895 2-2v-3h-29c-5.523 0-10-4.477-10-10z" fill="#cff09e"/><path d="m55 48h-30c-1.105 0-2-.895-2-2v-2h34v2c0 1.105-.895 2-2 2z" fill="#cff09e"/><path d="m55 47h-30c-1.105 0-2-.895-2-2v-2h34v2c0 1.105-.895 2-2 2z" fill="#a8dba8"/><circle cx="48" cy="56" fill="#79bd9a" r="5"/><path d="m8 39.5-2.789 1.394c-1.355.678-2.211 2.063-2.211 3.578v.528h3c1.105 0 2-.895 2-2z" fill="#fff"/><path d="m11 28v1h6c0 3.314-2.686 6-6 6v3h8v-10z" fill="#cff09e"/><circle cx="12" cy="56" fill="#79bd9a" r="5"/><path d="m6.87 40.065v1.854c0 1.105-.895 2-2 2h-1.831c-.026.182-.039.366-.039.553v.528h3c1.105 0 2-.895 2-2v-3.5z" fill="#cff09e"/><path d="m25 25h30v18h-30z" fill="#79bd9a"/><path d="m52 31c-1.657 0-3-1.343-3-3v-3h6v3c0 1.657-1.343 3-3 3z" fill="#cff09e"/><path d="m46 31c-1.657 0-3-1.343-3-3v-3h6v3c0 1.657-1.343 3-3 3z" fill="#a8dba8"/><path d="m40 31c-1.657 0-3-1.343-3-3v-3h6v3c0 1.657-1.343 3-3 3z" fill="#cff09e"/><path d="m28 31c-1.657 0-3-1.343-3-3v-3h6v3c0 1.657-1.343 3-3 3z" fill="#cff09e"/><path d="m34 31c-1.657 0-3-1.343-3-3v-3h6v3c0 1.657-1.343 3-3 3z" fill="#a8dba8"/><g><path d="m34 38h-5l1 5h3z" fill="#fff"/><path d="m46 39h-8v2c0 1.105.895 2 2 2h4c1.105 0 2-.895 2-2z" fill="#a8dba8"/><path d="m46 39h-8v-2c0-1.105.895-2 2-2h4c1.105 0 2 .895 2 2z" fill="#a8dba8"/><path d="m30.256 38h-1.256l1 5h3l.415-2.074c-1.509-.283-2.75-1.406-3.159-2.926z" fill="#cff09e"/></g></g><g><path d="m47 16h-16c-1.105 0-2-.895-2-2v-1c0-1.105.895-2 2-2h16c1.105 0 2 .895 2 2v1c0 1.105-.895 2-2 2z" fill="#79bd9a"/><path d="m47 21h-16c-2.209 0-4-1.791-4-4v-1h24v1c0 2.209-1.791 4-4 4z" fill="#a8dba8"/><path d="m27 11c0-6.627 5.373-8 12-8s12 1.373 12 8z" fill="#a8dba8"/><path d="m42 15-4-4h8z" fill="#cff09e"/></g></g></g><g id="Stroke_copy"><g fill="#3b8686"><path d="m59 20h-8.026c.635-.838 1.026-1.87 1.026-3v-1c0-.552-.447-1-1-1h-1.184c.112-.314.184-.648.184-1v-1c0-.352-.072-.686-.184-1h1.184c.553 0 1-.448 1-1 0-8.067-7.419-9-13-9s-13 .933-13 9c0 .552.448 1 1 1h1.184c-.112.314-.184.648-.184 1v1c0 .352.072.686.184 1h-1.184c-.552 0-1 .448-1 1v1c0 1.13.391 2.162 1.026 3h-6.026c-1.654 0-3 1.346-3 3h-5c-2.757 0-5 2.243-5 5 0 .552.448 1 1 1h1v8.382l-5.236 2.618c-1.705.852-2.764 2.566-2.764 4.472v9.528c0 .552.448 1 1 1h3.09c-.055.326-.09.659-.09 1 0 3.309 2.691 6 6 6s6-2.691 6-6c0-.341-.035-.674-.09-1h24.18c-.055.326-.09.659-.09 1 0 3.309 2.691 6 6 6s6-2.691 6-6c0-.341-.035-.674-.09-1h5.09c1.654 0 3-1.346 3-3v-29c0-1.654-1.346-3-3-3zm-11-7v1c0 .551-.448 1-1 1h-3.586l3-3h.586c.552 0 1 .449 1 1zm-6 .586-1.586-1.586h3.172zm-6.535-9.409c-.274.179-.465.472-.465.823 0 .552.448 1 1 1s1-.448 1-1c0-.408-.246-.755-.595-.911.801-.059 1.664-.089 2.595-.089s1.794.03 2.595.089c-.349.156-.595.503-.595.911 0 .552.448 1 1 1s1-.448 1-1c0-.351-.191-.644-.465-.823 4.809.537 7.072 2.342 7.418 5.823h-21.906c.346-3.481 2.608-5.286 7.418-5.823zm-5.465 9.823v-1c0-.551.449-1 1-1h6.586l3 3h-9.586c-.551 0-1-.449-1-1zm-2 3h22c0 1.654-1.346 3-3 3h-16c-1.654 0-3-1.346-3-3zm-8 6c0-.551.449-1 1-1h38c.552 0 1 .449 1 1v1h-40zm16 3v2c0 1.103-.897 2-2 2s-2-.897-2-2v-2zm6 0v2c0 1.103-.897 2-2 2s-2-.897-2-2v-2zm6 0v2c0 1.103-.897 2-2 2s-2-.897-2-2v-2zm-18 2c0 1.103-.897 2-2 2s-2-.897-2-2v-2h4zm26 16v1c0 .551-.448 1-1 1h-30c-.551 0-1-.449-1-1v-1zm-25.78-5h2.561l-.6 3h-1.36zm14.78-1h-6v-1c0-.551.448-1 1-1h4c.552 0 1 .449 1 1zm-6 3v-1h6v1c0 .551-.448 1-1 1h-4c-.552 0-1-.449-1-1zm7.816 1c.112-.314.184-.648.184-1v-4c0-1.654-1.346-3-3-3h-4c-1.654 0-3 1.346-3 3v4c0 .352.072.686.184 1h-2.964l.761-3.804c.059-.294-.018-.599-.207-.83-.191-.232-.474-.366-.774-.366h-1v-1.382l1.447-.724c.494-.247.694-.848.447-1.342s-.848-.695-1.342-.447l-2 1c-.338.17-.552.516-.552.895v2h-2c-.3 0-.583.134-.773.366-.19.231-.266.536-.207.83l.76 3.804h-2.78v-10.556c.591.344 1.268.556 2 .556 1.2 0 2.266-.542 3-1.382.734.84 1.8 1.382 3 1.382 1.201 0 2.266-.542 3-1.382.734.84 1.799 1.382 3 1.382s2.266-.542 3-1.382c.734.84 1.799 1.382 3 1.382s2.266-.542 3-1.382c.734.84 1.799 1.382 3 1.382.732 0 1.409-.212 2-.556v10.556zm7.184-14c0 1.103-.897 2-2 2s-2-.897-2-2v-2h4zm-41-3h5v2h-7.829c.413-1.164 1.525-2 2.829-2zm5 4v8h-5.333l2.24-1.68.387.387c.194.195.45.293.706.293s.512-.098.707-.293c.391-.391.391-1.023 0-1.414l-2-2c-.391-.391-1.023-.391-1.414 0s-.391 1.023 0 1.414l.185.185-1.478 1.108v-6zm-12.342 12.789 1.342-.671v1.882c0 .551-.449 1-1 1h-1.96c.149-.949.739-1.771 1.618-2.211zm6.342 18.211c-2.206 0-4-1.794-4-4s1.794-4 4-4 4 1.794 4 4-1.794 4-4 4zm0-10c-2.215 0-4.149 1.21-5.188 3h-2.812v-7h2c1.654 0 3-1.346 3-3v-2.882l2.236-1.118h6.764v14h-.812c-1.039-1.79-2.973-3-5.188-3zm36 10c-2.206 0-4-1.794-4-4s1.794-4 4-4 4 1.794 4 4-1.794 4-4 4zm11-7h-5.812c-1.039-1.79-2.973-3-5.188-3s-4.149 1.21-5.188 3h-22.812v-27h4v16h-1c-.552 0-1 .448-1 1v2c0 1.654 1.346 3 3 3h30c1.654 0 3-1.346 3-3v-2c0-.552-.447-1-1-1h-1v-16h4v26c0 .551-.448 1-1 1z"/><circle cx="48" cy="56" r="1"/><circle cx="12" cy="56" r="1"/><path d="m16 41h-2c-.552 0-1 .448-1 1s.448 1 1 1h2c.552 0 1-.448 1-1s-.448-1-1-1z"/><circle cx="45" cy="7" r="1"/><circle cx="38" cy="8" r="1"/><circle cx="33" cy="7" r="1"/></g></g></svg>