<svg id="Capa_1" enable-background="new 0 0 512 512" height="512" viewBox="0 0 512 512" width="512" xmlns="http://www.w3.org/2000/svg"><g><g><path d="m112.061 471.853c-4.268 0-7.726-3.459-7.726-7.726v-31.571c0-4.268 3.459-7.726 7.726-7.726s7.726 3.459 7.726 7.726v31.571c.001 4.267-3.458 7.726-7.726 7.726z" fill="#e8ad8c"/></g><g><path d="m384.061 199.727c-4.268 0-7.726-3.459-7.726-7.726v-16c0-4.268 3.459-7.726 7.726-7.726s7.726 3.459 7.726 7.726v16c.001 4.267-3.458 7.726-7.726 7.726z"/></g><g><path d="m352.045 199.727c-4.268 0-7.726-3.459-7.726-7.726v-16c0-4.268 3.459-7.726 7.726-7.726s7.726 3.459 7.726 7.726v16c0 4.267-3.458 7.726-7.726 7.726z"/></g><g><path d="m384.061 199.727c-4.268 0-7.726-3.459-7.726-7.726v-16c0-4.268 3.459-7.726 7.726-7.726s7.726 3.459 7.726 7.726v16c.001 4.267-3.458 7.726-7.726 7.726z" fill="#fd4755"/></g><g><path d="m352.045 199.727c-4.268 0-7.726-3.459-7.726-7.726v-16c0-4.268 3.459-7.726 7.726-7.726s7.726 3.459 7.726 7.726v16c0 4.267-3.458 7.726-7.726 7.726z" fill="#05e39c"/></g><path d="m464.07 277.7v147.09c0 3.98-3.24 7.21-7.22 7.21h-369.58c-3.98 0-7.21-3.23-7.21-7.21v-147.09z" fill="#60b7ff"/><path d="m177 261.151h-1.878c-14.022 0-25.874-9.291-29.735-22.053-1.357-4.485 2.027-9.008 6.714-9.008h47.92c4.686 0 8.071 4.522 6.714 9.008-3.861 12.762-15.713 22.053-29.735 22.053z" fill="#fee45a"/><path d="m181.06 260.88c-1.33.18-2.68.27-4.06.27h-1.88c-14.02 0-25.87-9.29-29.73-22.05-1.36-4.49 2.02-9.01 6.71-9.01h10c-4.69 0-8.07 4.52-6.71 9.01 3.48 11.51 13.46 20.19 25.67 21.78z" fill="#fed402"/><path d="m368.061 266.304h-32.031v-67.304c0-3.866 3.134-7 7-7h18.032c3.866 0 7 3.134 7 7v67.304z" fill="#00f2a6"/><path d="m353.03 192c-3.87 0-7 3.13-7 7v67.3h-10v-67.3c0-3.87 3.13-7 7-7z" fill="#05e39c"/><path d="m400.077 266.304h-32.031v-67.304c0-3.866 3.134-7 7-7h18.031c3.866 0 7 3.134 7 7z" fill="#fe646f"/><path d="m385.05 192c-3.87 0-7 3.13-7 7v67.3h-10v-67.3c0-3.87 3.13-7 7-7z" fill="#fd4755"/><path d="m271.845 0-192 64 32.216 10.307 320 .053 32.216-10.297z" fill="#fe646f"/><path d="m144.061 64.063h-63.937v32.905c0 17.138 13.893 31.032 31.032 31.032h1.874c17.138 0 31.032-13.893 31.032-31.032v-32.905z" fill="#fd4755"/><path d="m208.03 64.063h-63.937v32.905c0 17.138 13.893 31.032 31.032 31.032h1.874c17.138 0 31.032-13.893 31.032-31.032v-32.905z" fill="#fee45a"/><path d="m400.03 64.063h-63.937v32.905c0 17.138 13.893 31.032 31.032 31.032h1.874c17.138 0 31.032-13.893 31.032-31.032v-32.905z" fill="#fd4755"/><path d="m464.03 64.063h-63.937v32.905c0 17.138 13.893 31.032 31.032 31.032h1.874c17.138 0 31.032-13.893 31.032-31.032v-32.905z" fill="#fee45a"/><path d="m255.953 64h32.216v202.304h-32.216z" fill="#e19974"/><path d="m255.95 64h10v202.3h-10z" fill="#d77f4a"/><circle cx="112.061" cy="488" fill="#3a7d9b" r="24"/><path d="m464.07 308v-30.3h-384.01v147.09c0 3.982 3.228 7.21 7.21 7.21h20c-3.98 0-7.21-3.23-7.21-7.21v-101.79c0-8.284 6.716-15 15-15z" fill="#26a6fe"/><path d="m80.184 249v-11.565c0-25.126-20.369-45.495-45.495-45.495h-2.171c-8.682 0-16.152 6.672-16.56 15.344-.436 9.259 6.942 16.902 16.104 16.902h2.628c7.317 0 13.249 5.932 13.249 13.249v18.565c0 .648.049 1.283.123 1.91v19.788c0 5.69 4.612 10.302 10.302 10.302h427.396c5.69 0 10.302-4.612 10.302-10.302v-11.396c0-5.69-4.612-10.302-10.302-10.302h-398.576c-3.866 0-7-3.134-7-7z" fill="#e8ad8c"/><path d="m272.03 64.063h-63.937v32.905c0 17.138 13.893 31.032 31.032 31.032h1.874c17.138 0 31.032-13.893 31.032-31.032v-32.905z" fill="#fd4755"/><path d="m352.063 331.4c-55.476 0-100.608 45.122-100.608 100.598h81.21c0-10.693 8.705-19.398 19.398-19.398 10.694 0 19.399 8.705 19.399 19.398h81.2c0-55.476-45.123-100.598-100.599-100.598z" fill="#26a6fe"/><path d="m352.061 352c-44.183 0-80 35.817-80 80s35.817 80 80 80 80-35.817 80-80-35.817-80-80-80zm0 120c-22.091 0-40-17.909-40-40s17.909-40 40-40 40 17.909 40 40c0 22.092-17.908 40-40 40z" fill="#3a7d9b"/><path d="m336.03 64.063h-63.937v32.905c0 17.138 13.893 31.032 31.032 31.032h1.874c17.138 0 31.032-13.893 31.032-31.032v-32.905z" fill="#fee45a"/><path d="m112.061 495.727c-4.267 0-7.726-3.459-7.726-7.726 0-4.267 3.459-7.726 7.726-7.726 4.267 0 7.726 3.459 7.726 7.726.001 4.266-3.459 7.726-7.726 7.726z" fill="#60b7ff"/></g></svg>