<svg id="Twotone" height="512" viewBox="0 0 64 64" width="512" xmlns="http://www.w3.org/2000/svg"><g id="Color_copy_2"><g><path d="m27 61h-20c-2.209 0-4-1.791-4-4v-36c0-2.209 1.791-4 4-4h20c2.209 0 4 1.791 4 4v36c0 2.209-1.791 4-4 4z" fill="#fff"/><g fill="#cff09e"><path d="m27 53c-10.493 0-19-8.507-19-19v-17h-1c-2.209 0-4 1.791-4 4v36c0 2.209 1.791 4 4 4h20c2.209 0 4-1.791 4-4v-4z"/><path d="m15.919 45.332c2.577 4.464 8.286 5.994 12.75 3.416l2.021-1.167c.113-.065.213-.144.311-.224v-3.904l-.624-1.08c-.644-1.116-2.071-1.498-3.187-.854l-2.021 1.167c-1.116.644-2.543.262-3.187-.854l-4.667-8.083c-.644-1.116-.262-2.543.854-3.187l2.021-1.167c1.116-.644 1.498-2.071.854-3.187l-1.167-2.021c-.644-1.116-2.071-1.498-3.187-.854l-2.021 1.167c-4.464 2.577-5.994 8.286-3.416 12.75z"/></g><path d="m23.043 24.207-1.167-2.021c-.644-1.116-2.071-1.498-3.187-.854l-2.021 1.167c-4.464 2.577-5.994 8.286-3.416 12.75l4.667 8.083c2.577 4.464 8.286 5.994 12.75 3.416l2.021-1.167c1.116-.644 1.498-2.071.854-3.187l-1.167-2.021c-.644-1.116-2.071-1.498-3.187-.854l-2.021 1.167c-1.116.644-2.543.262-3.187-.854l-4.667-8.083c-.644-1.116-.262-2.543.854-3.187l2.021-1.167c1.115-.645 1.497-2.072.853-3.188z" fill="#a8dba8"/><g><path d="m42 41h15c2.209 0 4 1.791 4 4v5c0 2.209-1.791 4-4 4h-9l-6 6v-6c-2.209 0-4-1.791-4-4v-5c0-2.209 1.791-4 4-4z" fill="#79bd9a"/></g><g><path d="m45 3c-8.837 0-16 7.163-16 16 0 1.8.311 3.524.859 5.139l-2.859 7.861 7.695-.77c2.785 2.349 6.377 3.77 10.305 3.77 8.837 0 16-7.163 16-16s-7.163-16-16-16z" fill="#a8dba8"/><g><path d="m41 24h-4c-1.105 0-2-.895-2-2v-3h8v3c0 1.105-.895 2-2 2z" fill="#fff"/><path d="m53 24h-4c-1.105 0-2-.895-2-2v-3c0-2.209 1.791-4 4-4 2.209 0 4 1.791 4 4v3c0 1.105-.895 2-2 2z" fill="#fff"/><path d="m49 18v-1c0-.586.133-1.139.36-1.64-1.389.627-2.36 2.017-2.36 3.64v3c0 1.105.895 2 2 2h4c1.105 0 2-.895 2-2h-2c-2.209 0-4-1.791-4-4z" fill="#cff09e"/><path d="m37.141 19h-2.141v3c0 1.105.895 2 2 2h4c1.105 0 2-.895 2-2h-2c-1.862 0-3.412-1.278-3.859-3z" fill="#cff09e"/><path d="m53 24v8.86c-1.24.72-2.58 1.27-4 1.64v-10.5z" fill="#fff"/><path d="m53 24v2c-1.1 0-2 .9-2 2v5.84c-.65.26-1.31.48-2 .66v-10.5z" fill="#cff09e"/><path d="m41 24v10.49c-1.42-.36-2.76-.92-4-1.64v-8.85z" fill="#fff"/><path d="m41 24v2c-1.1 0-2 .9-2 2v5.83c-.69-.28-1.36-.61-2-.98v-8.85z" fill="#cff09e"/></g></g></g></g><g id="Stroke_copy"><g fill="#3b8686"><path d="m33.242 39.874c-.3-.521-.733-.93-1.242-1.219v-6.15l2.382-.238c3.008 2.41 6.762 3.733 10.618 3.733 9.374 0 17-7.626 17-17s-7.626-17-17-17c-8.408 0-15.391 6.142-16.745 14.171-.411-.11-.832-.171-1.255-.171h-20c-2.757 0-5 2.243-5 5v36c0 2.757 2.243 5 5 5h20c2.757 0 5-2.243 5-5v-9.866l1.188-.686c.771-.445 1.323-1.164 1.554-2.024.23-.859.112-1.758-.333-2.529zm8.758-19.874v2c0 .552-.448 1-1 1h-4c-.552 0-1-.448-1-1v-2zm-4 5h2v8.132c-.688-.244-1.354-.545-2-.888zm15-2h-4c-.552 0-1-.448-1-1v-3c0-1.654 1.346-3 3-3s3 1.346 3 3v3c0 .552-.448 1-1 1zm-3 2h2v7.257c-.639.339-1.31.623-2 .868zm-5-21c8.271 0 15 6.729 15 15 0 4.893-2.365 9.232-6 11.972v-6.156c1.161-.414 2-1.514 2-2.816v-3c0-2.757-2.243-5-5-5s-5 2.243-5 5v3c0 1.302.839 2.402 2 2.816v8.882c-.97.197-1.973.302-3 .302-1.014 0-2.017-.115-3-.317v-8.867c1.161-.414 2-1.514 2-2.816v-8c0-.553-.447-1-1-1s-1 .447-1 1v4h-2v-4c0-.553-.447-1-1-1s-1 .447-1 1v4h-2v-4c0-.553-.447-1-1-1s-1 .447-1 1v8c0 1.302.839 2.402 2 2.816v6.159c-.222-.167-.447-.329-.66-.509-.181-.152-.409-.235-.645-.235-.033 0-.066.002-.1.005l-6.112.611 2.314-6.366c.078-.214.081-.448.008-.663-.534-1.575-.805-3.196-.805-4.818 0-8.271 6.729-15 15-15zm-18 56h-20c-1.654 0-3-1.346-3-3v-36c0-1.654 1.346-3 3-3h20c.358 0 .702.09 1.039.221-.011.26-.039.516-.039.779 0 1.725.27 3.446.801 5.122l-2.74 7.536c-.118.323-.062.685.15.956.211.271.547.408.889.381l2.9-.29v5.525c-.457.049-.902.187-1.312.424l-2.021 1.166c-.31.179-.67.224-1.012.134-.344-.092-.632-.312-.81-.621l-4.666-8.083c-.179-.309-.226-.668-.134-1.012s.312-.632.621-.81l2.021-1.167c1.592-.92 2.14-2.962 1.221-4.554l-1.167-2.02c-.444-.771-1.164-1.323-2.024-1.554-.862-.231-1.759-.113-2.529.333l-2.021 1.166c-2.391 1.38-4.1 3.608-4.814 6.275-.714 2.666-.348 5.45 1.032 7.841l4.667 8.083c1.38 2.391 3.608 4.1 6.274 4.814.891.238 1.794.356 2.691.356 1.363 0 2.712-.276 3.981-.812v8.811c.002 1.654-1.344 3-2.998 3zm5.811-16.095c-.093.344-.313.632-.622.81l-2.021 1.167c-3.981 2.297-9.087.93-11.383-3.05l-4.667-8.083c-2.298-3.979-.93-9.087 3.05-11.384l2.021-1.166c.206-.119.434-.18.665-.18.116 0 .232.016.348.046.344.092.631.312.809.621l1.167 2.021c.179.309.226.668.134 1.012-.093.344-.313.632-.622.81l-2.021 1.167c-.771.445-1.323 1.164-1.553 2.024s-.112 1.758.333 2.529l4.666 8.083c.92 1.591 2.961 2.142 4.554 1.22l2.021-1.166c.309-.18.667-.225 1.013-.134.344.092.631.312.809.621l1.167 2.021c.176.308.223.668.132 1.011z"/><path d="m37.75 10.751c2.015-1.774 4.589-2.751 7.25-2.751s5.235.977 7.25 2.751c.19.167.426.249.661.249.277 0 .553-.114.751-.339.364-.415.324-1.047-.09-1.412-2.381-2.095-5.425-3.249-8.572-3.249s-6.191 1.154-8.572 3.249c-.414.365-.454.997-.09 1.412.366.415.997.454 1.412.09z"/><circle cx="7" cy="21" r="1"/><circle cx="11" cy="21" r="1"/><path d="m20 52h-6c-1.654 0-3 1.346-3 3s1.346 3 3 3h6c1.654 0 3-1.346 3-3s-1.346-3-3-3zm0 4h-6c-.552 0-1-.448-1-1s.448-1 1-1h6c.552 0 1 .448 1 1s-.448 1-1 1z"/><path d="m57 40h-15c-2.757 0-5 2.243-5 5v5c0 2.415 1.721 4.435 4 4.899v5.101c0 .404.243.77.617.924.124.052.254.076.383.076.26 0 .516-.102.707-.293l5.707-5.707h8.586c2.757 0 5-2.243 5-5v-5c0-2.757-2.243-5-5-5zm3 10c0 1.654-1.346 3-3 3h-9c-.266 0-.52.105-.707.293l-4.293 4.293v-3.586c0-.553-.447-1-1-1-1.654 0-3-1.346-3-3v-5c0-1.654 1.346-3 3-3h15c1.654 0 3 1.346 3 3z"/><path d="m54 45c0-.553-.447-1-1-1h-9c-.553 0-1 .447-1 1s.447 1 1 1h9c.553 0 1-.447 1-1z"/><path d="m56 48h-7c-.553 0-1 .447-1 1s.447 1 1 1h7c.553 0 1-.447 1-1s-.447-1-1-1z"/><circle cx="45" cy="49" r="1"/></g></g></svg>