<svg height="512" viewBox="0 0 64 64" width="512" xmlns="http://www.w3.org/2000/svg"><g id="Layer_29" data-name="Layer 29"><path d="m19 2h26v14h-26z" fill="#ccc"/><path d="m19 2v12h20a3 3 0 0 0 3-3v-9z" fill="#f2f2f2"/><rect fill="#fff" height="6" rx="2" width="11" x="22" y="4"/><path d="m4 28h56v30h-56z" fill="#ccc"/><path d="m4 28v27h51a2 2 0 0 0 2-2v-25z" fill="#f2f2f2"/><path d="m8 40h20v18h-20z" fill="#559b38"/><path d="m8 40v15h13a4 4 0 0 0 4-4v-11z" fill="#6bc148"/><path d="m51 20h-38l-11 8h60z" fill="#7cdf54"/><path d="m50 28v2a6 6 0 0 0 12 0v-2z" fill="#6bc148"/><path d="m26 28v2a6 6 0 0 0 12 0v-2z" fill="#6bc148"/><path d="m14 28v2a6 6 0 0 0 12 0v-2z" fill="#559b38"/><path d="m2 28v2a6 6 0 0 0 12 0v-2z" fill="#6bc148"/><path d="m38 28v2a6 6 0 0 0 12 0v-2z" fill="#559b38"/><path d="m22.999 20-8.999 8h12l4-8z" fill="#6bc148"/><path d="m41.001 20h-7.001l4 8h12z" fill="#6bc148"/><path d="m2 58h60v4h-60z" fill="#939393"/><path d="m17 40h2v18h-2z" fill="#7cdf54"/><path d="m21 47h2v4h-2z" fill="#7cdf54"/><path d="m13 47h2v4h-2z" fill="#7cdf54"/><path d="m32 40h24v14h-24z" fill="#fff"/><path d="m23 16h2v4h-2z" fill="#939393"/><path d="m39 16h2v4h-2z" fill="#939393"/><path d="m26 12h12v4h-12z" fill="#686868"/><path d="m32 6a5 5 0 0 0 -5 5v1h10v-1a5 5 0 0 0 -5-5z" fill="#686868"/><path d="m31 4h2v3h-2z" fill="#939393"/><g fill="#6bc148"><path d="m36 48h2v6h-2z"/><path d="m50 48h2v6h-2z"/><path d="m40 50h3v4h2v-4h3v-2h-8z"/></g><path d="m2 60h56a2 2 0 0 0 2-2h-58z" fill="#bebebe"/><path d="m26 14h9a2 2 0 0 0 2-2h-11z" fill="#939393"/><path d="m33 10a2 2 0 0 0 2-2v-.977a4.974 4.974 0 0 0 -7.9 2.977z" fill="#939393"/></g></svg>